<?xml version="1.0" encoding="UTF-8" standalone="no"?>
<!-- Created with Inkscape (http://www.inkscape.org/) -->

<svg
   xmlns:dc="http://purl.org/dc/elements/1.1/"
   xmlns:cc="http://creativecommons.org/ns#"
   xmlns:rdf="http://www.w3.org/1999/02/22-rdf-syntax-ns#"
   xmlns:svg="http://www.w3.org/2000/svg"
   xmlns="http://www.w3.org/2000/svg"
   xmlns:xlink="http://www.w3.org/1999/xlink"
   xmlns:sodipodi="http://sodipodi.sourceforge.net/DTD/sodipodi-0.dtd"
   xmlns:inkscape="http://www.inkscape.org/namespaces/inkscape"
   width="1052.3622"
   height="744.09448"
   id="svg2"
   version="1.1"
   inkscape:version="0.47 r22583"
   sodipodi:docname="Obsidian particle editor mockup.svg"
   inkscape:export-filename="C:\Users\David\Documents\Code\Python\Particle effects\PyIgnition\Screenshots and branding\Obsidian particle editor mockup with sizer diagram.png"
   inkscape:export-xdpi="171.04378"
   inkscape:export-ydpi="171.04378">
  <title
     id="title3606">ExeSoft Obsidian - particle editor mockup</title>
  <defs
     id="defs4">
    <linearGradient
       id="linearGradient3672">
      <stop
         style="stop-color:#a6a6a6;stop-opacity:1;"
         offset="0"
         id="stop3674" />
      <stop
         style="stop-color:#434343;stop-opacity:1;"
         offset="1"
         id="stop3676" />
    </linearGradient>
    <linearGradient
       id="linearGradient3643">
      <stop
         style="stop-color:#ffffff;stop-opacity:1;"
         offset="0"
         id="stop3645" />
      <stop
         style="stop-color:#eaeaea;stop-opacity:0.6785714;"
         offset="1"
         id="stop3647" />
    </linearGradient>
    <linearGradient
       id="linearGradient3610">
      <stop
         style="stop-color:#fff142;stop-opacity:1;"
         offset="0"
         id="stop3612" />
      <stop
         id="stop3618"
         offset="0.5"
         style="stop-color:#e1381a;stop-opacity:0.81176471;" />
      <stop
         style="stop-color:#ff1200;stop-opacity:0.625;"
         offset="1"
         id="stop3614" />
    </linearGradient>
    <inkscape:perspective
       sodipodi:type="inkscape:persp3d"
       inkscape:vp_x="0 : 526.18109 : 1"
       inkscape:vp_y="0 : 1000 : 0"
       inkscape:vp_z="744.09448 : 526.18109 : 1"
       inkscape:persp3d-origin="372.04724 : 350.78739 : 1"
       id="perspective10" />
    <radialGradient
       inkscape:collect="always"
       xlink:href="#linearGradient3610"
       id="radialGradient3616"
       cx="250.42648"
       cy="356.8179"
       fx="250.42648"
       fy="356.8179"
       r="76.730431"
       gradientUnits="userSpaceOnUse" />
    <inkscape:perspective
       id="perspective3628"
       inkscape:persp3d-origin="0.5 : 0.33333333 : 1"
       inkscape:vp_z="1 : 0.5 : 1"
       inkscape:vp_y="0 : 1000 : 0"
       inkscape:vp_x="0 : 0.5 : 1"
       sodipodi:type="inkscape:persp3d" />
    <radialGradient
       inkscape:collect="always"
       xlink:href="#linearGradient3610-7"
       id="radialGradient3616-1"
       cx="250.42648"
       cy="356.8179"
       fx="250.42648"
       fy="356.8179"
       r="76.730431"
       gradientUnits="userSpaceOnUse" />
    <linearGradient
       id="linearGradient3610-7">
      <stop
         style="stop-color:#fff142;stop-opacity:1;"
         offset="0"
         id="stop3612-4" />
      <stop
         id="stop3618-0"
         offset="0.5"
         style="stop-color:#e1381a;stop-opacity:0.81176471;" />
      <stop
         style="stop-color:#ff1200;stop-opacity:0.625;"
         offset="1"
         id="stop3614-9" />
    </linearGradient>
    <radialGradient
       r="76.730431"
       fy="356.8179"
       fx="250.42648"
       cy="356.8179"
       cx="250.42648"
       gradientUnits="userSpaceOnUse"
       id="radialGradient3638"
       xlink:href="#linearGradient3610-7"
       inkscape:collect="always" />
    <inkscape:perspective
       id="perspective3669"
       inkscape:persp3d-origin="0.5 : 0.33333333 : 1"
       inkscape:vp_z="1 : 0.5 : 1"
       inkscape:vp_y="0 : 1000 : 0"
       inkscape:vp_x="0 : 0.5 : 1"
       sodipodi:type="inkscape:persp3d" />
    <radialGradient
       inkscape:collect="always"
       xlink:href="#linearGradient3610-8"
       id="radialGradient3616-8"
       cx="250.42648"
       cy="356.8179"
       fx="250.42648"
       fy="356.8179"
       r="76.730431"
       gradientUnits="userSpaceOnUse" />
    <linearGradient
       id="linearGradient3610-8">
      <stop
         style="stop-color:#fff142;stop-opacity:1;"
         offset="0"
         id="stop3612-2" />
      <stop
         id="stop3618-4"
         offset="0.5"
         style="stop-color:#e1381a;stop-opacity:0.81176471;" />
      <stop
         style="stop-color:#ff1200;stop-opacity:0.625;"
         offset="1"
         id="stop3614-5" />
    </linearGradient>
    <radialGradient
       r="76.730431"
       fy="356.8179"
       fx="250.42648"
       cy="356.8179"
       cx="250.42648"
       gradientUnits="userSpaceOnUse"
       id="radialGradient3679"
       xlink:href="#linearGradient3610-8"
       inkscape:collect="always" />
    <inkscape:perspective
       id="perspective3710"
       inkscape:persp3d-origin="0.5 : 0.33333333 : 1"
       inkscape:vp_z="1 : 0.5 : 1"
       inkscape:vp_y="0 : 1000 : 0"
       inkscape:vp_x="0 : 0.5 : 1"
       sodipodi:type="inkscape:persp3d" />
    <radialGradient
       inkscape:collect="always"
       xlink:href="#linearGradient3610-1"
       id="radialGradient3616-17"
       cx="250.42648"
       cy="356.8179"
       fx="250.42648"
       fy="356.8179"
       r="76.730431"
       gradientUnits="userSpaceOnUse" />
    <linearGradient
       id="linearGradient3610-1">
      <stop
         style="stop-color:#fff142;stop-opacity:1;"
         offset="0"
         id="stop3612-1" />
      <stop
         id="stop3618-5"
         offset="0.5"
         style="stop-color:#e1381a;stop-opacity:0.81176471;" />
      <stop
         style="stop-color:#ff1200;stop-opacity:0.625;"
         offset="1"
         id="stop3614-2" />
    </linearGradient>
    <radialGradient
       r="76.730431"
       fy="356.8179"
       fx="250.42648"
       cy="356.8179"
       cx="250.42648"
       gradientUnits="userSpaceOnUse"
       id="radialGradient3720"
       xlink:href="#linearGradient3610-1"
       inkscape:collect="always" />
    <inkscape:perspective
       id="perspective3751"
       inkscape:persp3d-origin="0.5 : 0.33333333 : 1"
       inkscape:vp_z="1 : 0.5 : 1"
       inkscape:vp_y="0 : 1000 : 0"
       inkscape:vp_x="0 : 0.5 : 1"
       sodipodi:type="inkscape:persp3d" />
    <radialGradient
       r="76.730431"
       fy="356.8179"
       fx="250.42648"
       cy="356.8179"
       cx="250.42648"
       gradientUnits="userSpaceOnUse"
       id="radialGradient3720-6"
       xlink:href="#linearGradient3610-1-1"
       inkscape:collect="always" />
    <linearGradient
       id="linearGradient3610-1-1">
      <stop
         style="stop-color:#fff142;stop-opacity:1;"
         offset="0"
         id="stop3612-1-4" />
      <stop
         id="stop3618-5-2"
         offset="0.5"
         style="stop-color:#e1381a;stop-opacity:0.81176471;" />
      <stop
         style="stop-color:#ff1200;stop-opacity:0.625;"
         offset="1"
         id="stop3614-2-3" />
    </linearGradient>
    <radialGradient
       r="76.730431"
       fy="356.8179"
       fx="250.42648"
       cy="356.8179"
       cx="250.42648"
       gradientUnits="userSpaceOnUse"
       id="radialGradient3761"
       xlink:href="#linearGradient3610-1-1"
       inkscape:collect="always" />
    <clipPath
       clipPathUnits="userSpaceOnUse"
       id="clipPath3813">
      <rect
         style="fill:none;stroke:#eaeaea;stroke-width:2;stroke-linecap:round;stroke-linejoin:miter;stroke-miterlimit:4;stroke-opacity:1;stroke-dasharray:none"
         id="rect3815"
         width="343.57291"
         height="227.52162"
         x="114.5243"
         y="311.77167" />
    </clipPath>
    <clipPath
       clipPathUnits="userSpaceOnUse"
       id="clipPath3817">
      <rect
         style="fill:none;stroke:#eaeaea;stroke-width:2;stroke-linecap:round;stroke-linejoin:miter;stroke-miterlimit:4;stroke-opacity:1;stroke-dasharray:none"
         id="rect3819"
         width="343.57291"
         height="227.52162"
         x="-19.850885"
         y="178.92348" />
    </clipPath>
    <clipPath
       clipPathUnits="userSpaceOnUse"
       id="clipPath3821">
      <rect
         style="fill:none;stroke:#eaeaea;stroke-width:2;stroke-linecap:round;stroke-linejoin:miter;stroke-miterlimit:4;stroke-opacity:1;stroke-dasharray:none"
         id="rect3823"
         width="343.57291"
         height="227.52162"
         x="193.92783"
         y="316.35263" />
    </clipPath>
    <linearGradient
       inkscape:collect="always"
       xlink:href="#linearGradient3643"
       id="linearGradient3649"
       x1="436.48288"
       y1="604.42676"
       x2="436.19241"
       y2="552.79968"
       gradientUnits="userSpaceOnUse"
       gradientTransform="matrix(1.0026902,0,0,0.10419466,-26.925224,791.39906)" />
    <linearGradient
       inkscape:collect="always"
       xlink:href="#linearGradient3672"
       id="linearGradient3678"
       x1="7.8258276"
       y1="427.44122"
       x2="12.120488"
       y2="438.79822"
       gradientUnits="userSpaceOnUse"
       gradientTransform="translate(171.02297,426.79392)" />
    <radialGradient
       inkscape:collect="always"
       xlink:href="#linearGradient3610"
       id="radialGradient3771"
       gradientUnits="userSpaceOnUse"
       cx="250.42648"
       cy="356.8179"
       fx="250.42648"
       fy="356.8179"
       r="76.730431" />
    <radialGradient
       inkscape:collect="always"
       xlink:href="#linearGradient3610-8"
       id="radialGradient3773"
       gradientUnits="userSpaceOnUse"
       cx="250.42648"
       cy="356.8179"
       fx="250.42648"
       fy="356.8179"
       r="76.730431" />
    <radialGradient
       inkscape:collect="always"
       xlink:href="#linearGradient3610-1"
       id="radialGradient3775"
       gradientUnits="userSpaceOnUse"
       cx="250.42648"
       cy="356.8179"
       fx="250.42648"
       fy="356.8179"
       r="76.730431" />
  </defs>
  <sodipodi:namedview
     id="base"
     pagecolor="#ffffff"
     bordercolor="#666666"
     borderopacity="1.0"
     inkscape:pageopacity="0.0"
     inkscape:pageshadow="2"
     inkscape:zoom="0.93554688"
     inkscape:cx="492.00164"
     inkscape:cy="390.75573"
     inkscape:document-units="px"
     inkscape:current-layer="layer1"
     showgrid="false"
     inkscape:window-width="1366"
     inkscape:window-height="706"
     inkscape:window-x="-8"
     inkscape:window-y="-8"
     inkscape:window-maximized="1" />
  <metadata
     id="metadata7">
    <rdf:RDF>
      <cc:Work
         rdf:about="">
        <dc:format>image/svg+xml</dc:format>
        <dc:type
           rdf:resource="http://purl.org/dc/dcmitype/StillImage" />
        <dc:title>ExeSoft Obsidian - particle editor mockup</dc:title>
      </cc:Work>
    </rdf:RDF>
  </metadata>
  <g
     inkscape:label="Layer 1"
     inkscape:groupmode="layer"
     id="layer1"
     transform="translate(0,-308.2677)"
     style="display:inline">
    <rect
       style="fill:#bcc7c5;fill-opacity:1;stroke:#555555;stroke-width:6;stroke-linecap:round;stroke-linejoin:round;stroke-miterlimit:4;stroke-opacity:1;stroke-dasharray:none"
       id="rect2816"
       width="556.58807"
       height="348.91739"
       x="59.552643"
       y="549.98224"
       ry="12.215926" />
    <g
       id="g3651"
       transform="translate(-21.377871,282.49329)">
      <rect
         ry="0"
         y="282.76331"
         x="93.914406"
         height="228.27618"
         width="344.32751"
         id="rect3604"
         style="fill:#907ca8;fill-opacity:1;stroke:#000000;stroke-width:1.008937;stroke-linecap:round;stroke-linejoin:miter;stroke-miterlimit:4;stroke-opacity:1;stroke-dasharray:none" />
      <path
         clip-path="url(#clipPath3821)"
         transform="translate(-99.2544,-32.830301)"
         d="m 326.01253,369.79732 c 7.68883,-2.89652 -75.49633,-33.18394 -78.13737,-25.40365 -2.74186,8.0773 61.90615,48.519 70.42706,48.12577 8.20759,-0.37878 -61.54687,-54.88945 -66.46289,-48.30609 -5.10368,6.83469 43.88305,65.27437 52.10844,67.53349 7.92292,2.17605 -41.57278,-71.222 -48.28257,-66.47998 -6.96593,4.92305 21.56437,75.64022 28.68907,80.33055 6.86272,4.51786 -17.52925,-80.58284 -25.376,-78.14635 -8.1463,2.52951 -2.86518,78.60188 2.46142,85.26431 5.13073,6.41743 8.23016,-82.05568 0.0145,-82.16322 -8.52925,-0.11164 -27.01426,73.86944 -24.00717,81.8518 2.89652,7.68883 33.18394,-75.49633 25.40366,-78.13737 -8.07731,-2.74186 -48.51901,61.90615 -48.12577,70.42706 0.37877,8.20759 54.88945,-61.54687 48.30608,-66.46289 -6.83469,-5.10369 -65.27436,43.88305 -67.53348,52.10843 -2.17605,7.92293 71.222,-41.57278 66.47998,-48.28256 -4.92305,-6.96593 -75.64022,21.56437 -80.33056,28.68907 -4.51786,6.86272 80.58285,-17.52925 78.14635,-25.376 -2.5295,-8.1463 -78.60187,-2.86518 -85.2643,2.46142 -6.41744,5.13073 82.05568,8.23016 82.16321,0.0145 0.11164,-8.52925 -73.86944,-27.01427 -81.85179,-24.00717 -7.68883,2.89652 75.49632,33.18394 78.13736,25.40365 2.74186,-8.0773 -61.90614,-48.519 -70.42706,-48.12576 -8.20758,0.37877 61.54688,54.88945 66.46289,48.30608 5.10369,-6.83469 -43.88304,-65.27436 -52.10843,-67.53348 -7.92293,-2.17605 41.57278,71.222 48.28256,66.47997 6.96593,-4.92304 -21.56437,-75.64021 -28.68907,-80.33055 -6.86271,-4.51786 17.52926,80.58285 25.37601,78.14635 8.14629,-2.5295 2.86517,-78.60187 -2.46143,-85.2643 -5.13073,-6.41744 -8.23015,82.05567 -0.0145,82.16321 8.52925,0.11164 27.01426,-73.86944 24.00717,-81.85179 -2.89652,-7.68883 -33.18395,75.49632 -25.40366,78.13736 8.0773,2.74186 48.519,-61.90614 48.12577,-70.42706 -0.37877,-8.20758 -54.88945,61.54687 -48.30609,66.46289 6.83469,5.10369 65.27437,-43.88304 67.53349,-52.10843 2.17605,-7.92293 -71.222,41.57278 -66.47998,48.28256 4.92305,6.96593 75.64022,-21.56437 80.33055,-28.68907 4.51786,-6.86271 -80.58284,17.52926 -78.14635,25.376 2.52951,8.1463 78.60188,2.86518 85.26431,-2.46142 6.41744,-5.13073 -82.05568,-8.23015 -82.16321,-0.0145 -0.11164,8.52926 73.86943,27.01427 81.85179,24.00717 z"
         inkscape:randomized="0"
         inkscape:rounded="0.1"
         inkscape:flatsided="false"
         sodipodi:arg2="-1.773331"
         sodipodi:arg1="0.17005862"
         sodipodi:r2="12.683485"
         sodipodi:r1="76.692345"
         sodipodi:cy="356.8179"
         sodipodi:cx="250.42648"
         sodipodi:sides="20"
         id="path3608"
         style="fill:url(#radialGradient3771);fill-opacity:1;stroke:#eaeaea;stroke-width:2;stroke-linecap:round;stroke-linejoin:miter;stroke-miterlimit:4;stroke-opacity:1;stroke-dasharray:none"
         sodipodi:type="star" />
      <path
         transform="translate(41.992246,19.850871)"
         d="m 326.01253,369.79732 c 7.68883,-2.89652 -75.49633,-33.18394 -78.13737,-25.40365 -2.74186,8.0773 61.90615,48.519 70.42706,48.12577 8.20759,-0.37878 -61.54687,-54.88945 -66.46289,-48.30609 -5.10368,6.83469 43.88305,65.27437 52.10844,67.53349 7.92292,2.17605 -41.57278,-71.222 -48.28257,-66.47998 -6.96593,4.92305 21.56437,75.64022 28.68907,80.33055 6.86272,4.51786 -17.52925,-80.58284 -25.376,-78.14635 -8.1463,2.52951 -2.86518,78.60188 2.46142,85.26431 5.13073,6.41743 8.23016,-82.05568 0.0145,-82.16322 -8.52925,-0.11164 -27.01426,73.86944 -24.00717,81.8518 2.89652,7.68883 33.18394,-75.49633 25.40366,-78.13737 -8.07731,-2.74186 -48.51901,61.90615 -48.12577,70.42706 0.37877,8.20759 54.88945,-61.54687 48.30608,-66.46289 -6.83469,-5.10369 -65.27436,43.88305 -67.53348,52.10843 -2.17605,7.92293 71.222,-41.57278 66.47998,-48.28256 -4.92305,-6.96593 -75.64022,21.56437 -80.33056,28.68907 -4.51786,6.86272 80.58285,-17.52925 78.14635,-25.376 -2.5295,-8.1463 -78.60187,-2.86518 -85.2643,2.46142 -6.41744,5.13073 82.05568,8.23016 82.16321,0.0145 0.11164,-8.52925 -73.86944,-27.01427 -81.85179,-24.00717 -7.68883,2.89652 75.49632,33.18394 78.13736,25.40365 2.74186,-8.0773 -61.90614,-48.519 -70.42706,-48.12576 -8.20758,0.37877 61.54688,54.88945 66.46289,48.30608 5.10369,-6.83469 -43.88304,-65.27436 -52.10843,-67.53348 -7.92293,-2.17605 41.57278,71.222 48.28256,66.47997 6.96593,-4.92304 -21.56437,-75.64021 -28.68907,-80.33055 -6.86271,-4.51786 17.52926,80.58285 25.37601,78.14635 8.14629,-2.5295 2.86517,-78.60187 -2.46143,-85.2643 -5.13073,-6.41744 -8.23015,82.05567 -0.0145,82.16321 8.52925,0.11164 27.01426,-73.86944 24.00717,-81.85179 -2.89652,-7.68883 -33.18395,75.49632 -25.40366,78.13736 8.0773,2.74186 48.519,-61.90614 48.12577,-70.42706 -0.37877,-8.20758 -54.88945,61.54687 -48.30609,66.46289 6.83469,5.10369 65.27437,-43.88304 67.53349,-52.10843 2.17605,-7.92293 -71.222,41.57278 -66.47998,48.28256 4.92305,6.96593 75.64022,-21.56437 80.33055,-28.68907 4.51786,-6.86271 -80.58284,17.52926 -78.14635,25.376 2.52951,8.1463 78.60188,2.86518 85.26431,-2.46142 6.41744,-5.13073 -82.05568,-8.23015 -82.16321,-0.0145 -0.11164,8.52926 73.86943,27.01427 81.85179,24.00717 z"
         inkscape:randomized="0"
         inkscape:rounded="0.1"
         inkscape:flatsided="false"
         sodipodi:arg2="-1.773331"
         sodipodi:arg1="0.17005862"
         sodipodi:r2="12.683485"
         sodipodi:r1="76.692345"
         sodipodi:cy="356.8179"
         sodipodi:cx="250.42648"
         sodipodi:sides="20"
         id="path3608-4"
         style="fill:url(#radialGradient3638);fill-opacity:1;stroke:#eaeaea;stroke-width:2;stroke-linecap:round;stroke-linejoin:miter;stroke-miterlimit:4;stroke-opacity:1;stroke-dasharray:none"
         sodipodi:type="star" />
      <path
         clip-path="url(#clipPath3817)"
         transform="translate(114.52431,104.59886)"
         d="m 326.01253,369.79732 c 7.68883,-2.89652 -75.49633,-33.18394 -78.13737,-25.40365 -2.74186,8.0773 61.90615,48.519 70.42706,48.12577 8.20759,-0.37878 -61.54687,-54.88945 -66.46289,-48.30609 -5.10368,6.83469 43.88305,65.27437 52.10844,67.53349 7.92292,2.17605 -41.57278,-71.222 -48.28257,-66.47998 -6.96593,4.92305 21.56437,75.64022 28.68907,80.33055 6.86272,4.51786 -17.52925,-80.58284 -25.376,-78.14635 -8.1463,2.52951 -2.86518,78.60188 2.46142,85.26431 5.13073,6.41743 8.23016,-82.05568 0.0145,-82.16322 -8.52925,-0.11164 -27.01426,73.86944 -24.00717,81.8518 2.89652,7.68883 33.18394,-75.49633 25.40366,-78.13737 -8.07731,-2.74186 -48.51901,61.90615 -48.12577,70.42706 0.37877,8.20759 54.88945,-61.54687 48.30608,-66.46289 -6.83469,-5.10369 -65.27436,43.88305 -67.53348,52.10843 -2.17605,7.92293 71.222,-41.57278 66.47998,-48.28256 -4.92305,-6.96593 -75.64022,21.56437 -80.33056,28.68907 -4.51786,6.86272 80.58285,-17.52925 78.14635,-25.376 -2.5295,-8.1463 -78.60187,-2.86518 -85.2643,2.46142 -6.41744,5.13073 82.05568,8.23016 82.16321,0.0145 0.11164,-8.52925 -73.86944,-27.01427 -81.85179,-24.00717 -7.68883,2.89652 75.49632,33.18394 78.13736,25.40365 2.74186,-8.0773 -61.90614,-48.519 -70.42706,-48.12576 -8.20758,0.37877 61.54688,54.88945 66.46289,48.30608 5.10369,-6.83469 -43.88304,-65.27436 -52.10843,-67.53348 -7.92293,-2.17605 41.57278,71.222 48.28256,66.47997 6.96593,-4.92304 -21.56437,-75.64021 -28.68907,-80.33055 -6.86271,-4.51786 17.52926,80.58285 25.37601,78.14635 8.14629,-2.5295 2.86517,-78.60187 -2.46143,-85.2643 -5.13073,-6.41744 -8.23015,82.05567 -0.0145,82.16321 8.52925,0.11164 27.01426,-73.86944 24.00717,-81.85179 -2.89652,-7.68883 -33.18395,75.49632 -25.40366,78.13736 8.0773,2.74186 48.519,-61.90614 48.12577,-70.42706 -0.37877,-8.20758 -54.88945,61.54687 -48.30609,66.46289 6.83469,5.10369 65.27437,-43.88304 67.53349,-52.10843 2.17605,-7.92293 -71.222,41.57278 -66.47998,48.28256 4.92305,6.96593 75.64022,-21.56437 80.33055,-28.68907 4.51786,-6.86271 -80.58284,17.52926 -78.14635,25.376 2.52951,8.1463 78.60188,2.86518 85.26431,-2.46142 6.41744,-5.13073 -82.05568,-8.23015 -82.16321,-0.0145 -0.11164,8.52926 73.86943,27.01427 81.85179,24.00717 z"
         inkscape:randomized="0"
         inkscape:rounded="0.1"
         inkscape:flatsided="false"
         sodipodi:arg2="-1.773331"
         sodipodi:arg1="0.17005862"
         sodipodi:r2="12.683485"
         sodipodi:r1="76.692345"
         sodipodi:cy="356.8179"
         sodipodi:cx="250.42648"
         sodipodi:sides="20"
         id="path3608-5"
         style="fill:url(#radialGradient3773);fill-opacity:1;stroke:#eaeaea;stroke-width:2;stroke-linecap:round;stroke-linejoin:miter;stroke-miterlimit:4;stroke-opacity:1;stroke-dasharray:none"
         sodipodi:type="star" />
      <path
         clip-path="url(#clipPath3813)"
         transform="translate(-19.850879,-28.249337)"
         d="m 326.01253,369.79732 c 7.68883,-2.89652 -75.49633,-33.18394 -78.13737,-25.40365 -2.74186,8.0773 61.90615,48.519 70.42706,48.12577 8.20759,-0.37878 -61.54687,-54.88945 -66.46289,-48.30609 -5.10368,6.83469 43.88305,65.27437 52.10844,67.53349 7.92292,2.17605 -41.57278,-71.222 -48.28257,-66.47998 -6.96593,4.92305 21.56437,75.64022 28.68907,80.33055 6.86272,4.51786 -17.52925,-80.58284 -25.376,-78.14635 -8.1463,2.52951 -2.86518,78.60188 2.46142,85.26431 5.13073,6.41743 8.23016,-82.05568 0.0145,-82.16322 -8.52925,-0.11164 -27.01426,73.86944 -24.00717,81.8518 2.89652,7.68883 33.18394,-75.49633 25.40366,-78.13737 -8.07731,-2.74186 -48.51901,61.90615 -48.12577,70.42706 0.37877,8.20759 54.88945,-61.54687 48.30608,-66.46289 -6.83469,-5.10369 -65.27436,43.88305 -67.53348,52.10843 -2.17605,7.92293 71.222,-41.57278 66.47998,-48.28256 -4.92305,-6.96593 -75.64022,21.56437 -80.33056,28.68907 -4.51786,6.86272 80.58285,-17.52925 78.14635,-25.376 -2.5295,-8.1463 -78.60187,-2.86518 -85.2643,2.46142 -6.41744,5.13073 82.05568,8.23016 82.16321,0.0145 0.11164,-8.52925 -73.86944,-27.01427 -81.85179,-24.00717 -7.68883,2.89652 75.49632,33.18394 78.13736,25.40365 2.74186,-8.0773 -61.90614,-48.519 -70.42706,-48.12576 -8.20758,0.37877 61.54688,54.88945 66.46289,48.30608 5.10369,-6.83469 -43.88304,-65.27436 -52.10843,-67.53348 -7.92293,-2.17605 41.57278,71.222 48.28256,66.47997 6.96593,-4.92304 -21.56437,-75.64021 -28.68907,-80.33055 -6.86271,-4.51786 17.52926,80.58285 25.37601,78.14635 8.14629,-2.5295 2.86517,-78.60187 -2.46143,-85.2643 -5.13073,-6.41744 -8.23015,82.05567 -0.0145,82.16321 8.52925,0.11164 27.01426,-73.86944 24.00717,-81.85179 -2.89652,-7.68883 -33.18395,75.49632 -25.40366,78.13736 8.0773,2.74186 48.519,-61.90614 48.12577,-70.42706 -0.37877,-8.20758 -54.88945,61.54687 -48.30609,66.46289 6.83469,5.10369 65.27437,-43.88304 67.53349,-52.10843 2.17605,-7.92293 -71.222,41.57278 -66.47998,48.28256 4.92305,6.96593 75.64022,-21.56437 80.33055,-28.68907 4.51786,-6.86271 -80.58284,17.52926 -78.14635,25.376 2.52951,8.1463 78.60188,2.86518 85.26431,-2.46142 6.41744,-5.13073 -82.05568,-8.23015 -82.16321,-0.0145 -0.11164,8.52926 73.86943,27.01427 81.85179,24.00717 z"
         inkscape:randomized="0"
         inkscape:rounded="0.1"
         inkscape:flatsided="false"
         sodipodi:arg2="-1.773331"
         sodipodi:arg1="0.17005862"
         sodipodi:r2="12.683485"
         sodipodi:r1="76.692345"
         sodipodi:cy="356.8179"
         sodipodi:cx="250.42648"
         sodipodi:sides="20"
         id="path3608-7"
         style="fill:url(#radialGradient3775);fill-opacity:1;stroke:#eaeaea;stroke-width:2;stroke-linecap:round;stroke-linejoin:miter;stroke-miterlimit:4;stroke-opacity:1;stroke-dasharray:none"
         sodipodi:type="star" />
      <path
         transform="translate(94.673427,58.789136)"
         d="m 326.01253,369.79732 c 7.68883,-2.89652 -75.49633,-33.18394 -78.13737,-25.40365 -2.74186,8.0773 61.90615,48.519 70.42706,48.12577 8.20759,-0.37878 -61.54687,-54.88945 -66.46289,-48.30609 -5.10368,6.83469 43.88305,65.27437 52.10844,67.53349 7.92292,2.17605 -41.57278,-71.222 -48.28257,-66.47998 -6.96593,4.92305 21.56437,75.64022 28.68907,80.33055 6.86272,4.51786 -17.52925,-80.58284 -25.376,-78.14635 -8.1463,2.52951 -2.86518,78.60188 2.46142,85.26431 5.13073,6.41743 8.23016,-82.05568 0.0145,-82.16322 -8.52925,-0.11164 -27.01426,73.86944 -24.00717,81.8518 2.89652,7.68883 33.18394,-75.49633 25.40366,-78.13737 -8.07731,-2.74186 -48.51901,61.90615 -48.12577,70.42706 0.37877,8.20759 54.88945,-61.54687 48.30608,-66.46289 -6.83469,-5.10369 -65.27436,43.88305 -67.53348,52.10843 -2.17605,7.92293 71.222,-41.57278 66.47998,-48.28256 -4.92305,-6.96593 -75.64022,21.56437 -80.33056,28.68907 -4.51786,6.86272 80.58285,-17.52925 78.14635,-25.376 -2.5295,-8.1463 -78.60187,-2.86518 -85.2643,2.46142 -6.41744,5.13073 82.05568,8.23016 82.16321,0.0145 0.11164,-8.52925 -73.86944,-27.01427 -81.85179,-24.00717 -7.68883,2.89652 75.49632,33.18394 78.13736,25.40365 2.74186,-8.0773 -61.90614,-48.519 -70.42706,-48.12576 -8.20758,0.37877 61.54688,54.88945 66.46289,48.30608 5.10369,-6.83469 -43.88304,-65.27436 -52.10843,-67.53348 -7.92293,-2.17605 41.57278,71.222 48.28256,66.47997 6.96593,-4.92304 -21.56437,-75.64021 -28.68907,-80.33055 -6.86271,-4.51786 17.52926,80.58285 25.37601,78.14635 8.14629,-2.5295 2.86517,-78.60187 -2.46143,-85.2643 -5.13073,-6.41744 -8.23015,82.05567 -0.0145,82.16321 8.52925,0.11164 27.01426,-73.86944 24.00717,-81.85179 -2.89652,-7.68883 -33.18395,75.49632 -25.40366,78.13736 8.0773,2.74186 48.519,-61.90614 48.12577,-70.42706 -0.37877,-8.20758 -54.88945,61.54687 -48.30609,66.46289 6.83469,5.10369 65.27437,-43.88304 67.53349,-52.10843 2.17605,-7.92293 -71.222,41.57278 -66.47998,48.28256 4.92305,6.96593 75.64022,-21.56437 80.33055,-28.68907 4.51786,-6.86271 -80.58284,17.52926 -78.14635,25.376 2.52951,8.1463 78.60188,2.86518 85.26431,-2.46142 6.41744,-5.13073 -82.05568,-8.23015 -82.16321,-0.0145 -0.11164,8.52926 73.86943,27.01427 81.85179,24.00717 z"
         inkscape:randomized="0"
         inkscape:rounded="0.1"
         inkscape:flatsided="false"
         sodipodi:arg2="-1.773331"
         sodipodi:arg1="0.17005862"
         sodipodi:r2="12.683485"
         sodipodi:r1="76.692345"
         sodipodi:cy="356.8179"
         sodipodi:cx="250.42648"
         sodipodi:sides="20"
         id="path3608-7-2"
         style="fill:url(#radialGradient3761);fill-opacity:1;stroke:#eaeaea;stroke-width:2;stroke-linecap:round;stroke-linejoin:miter;stroke-miterlimit:4;stroke-opacity:1;stroke-dasharray:none"
         sodipodi:type="star" />
    </g>
    <rect
       style="fill:none;stroke:url(#linearGradient3649);stroke-width:0.64645171;stroke-linecap:round;stroke-linejoin:miter;stroke-miterlimit:4;stroke-opacity:1;stroke-dasharray:none"
       id="rect2869"
       width="504.49707"
       height="5.1708732"
       x="81.017235"
       y="849.10199"
       rx="0"
       ry="0" />
    <text
       xml:space="preserve"
       style="font-size:4px;font-style:normal;font-weight:normal;fill:#000000;fill-opacity:1;stroke:none;font-family:Bitstream Vera Sans"
       x="461.12213"
       y="881.28363"
       id="text3131"><tspan
         sodipodi:role="line"
         x="518.96588"
         y="0"
         id="tspan3133"><tspan
           x="461.12213"
           y="881.28363"
           style="font-size:16px"
           id="tspan3135">Current </tspan><tspan
           x="518.96588"
           y="881.28363"
           style="font-size:18px"
           id="tspan3137">frame: 39</tspan></tspan></text>
    <path
       style="fill:#eaeaea;fill-opacity:1;stroke:#000000;stroke-linejoin:miter;stroke-opacity:1"
       d="m 81.312259,835.72035 11.45243,0 0,12.21593 -7.44408,0 -4.00835,5.15359 0,-5.15359 0,-12.21593 z"
       id="rect3692"
       sodipodi:nodetypes="ccccccc" />
    <use
       x="0"
       y="0"
       xlink:href="#rect3692"
       id="use3695"
       transform="translate(39.892635,0.38174072)"
       width="744.09448"
       height="1052.3622" />
    <use
       x="0"
       y="0"
       xlink:href="#use3695"
       id="use3697"
       transform="translate(60.316137,0.19087072)"
       width="744.09448"
       height="1052.3622" />
    <path
       style="fill:url(#linearGradient3678);fill-opacity:1;stroke:none"
       d="m 176.36744,856.14387 4.67641,-4.96272 4.48553,4.96272 0,12.21592 -9.16194,0 0,-12.21592 z"
       id="rect3669"
       sodipodi:nodetypes="cccccc"
       inkscape:label="curframepointer">
      <desc
         id="desc3690">Current frame pointer</desc>
    </path>
    <use
       x="0"
       y="0"
       xlink:href="#rect3692"
       id="use3699"
       transform="translate(212.63347,0.19087072)"
       width="744.09448"
       height="1052.3622" />
    <use
       x="0"
       y="0"
       xlink:href="#use3699"
       id="use3701"
       transform="translate(4.5809729,7.2163371e-7)"
       width="744.09448"
       height="1052.3622" />
    <use
       x="0"
       y="0"
       xlink:href="#use3701"
       id="use3703"
       transform="translate(270.08649,0.19087072)"
       width="744.09448"
       height="1052.3622" />
    <text
       xml:space="preserve"
       style="font-size:16px;font-style:normal;font-weight:normal;fill:#000000;fill-opacity:1;stroke:none;font-family:Bitstream Vera Sans"
       x="425.27838"
       y="576.33124"
       id="text3045"><tspan
         sodipodi:role="line"
         x="425.27838"
         y="576.33124"
         id="tspan3047"><tspan
           x="425.27838"
           y="576.33124"
           id="tspan3049">Drawtype:</tspan></tspan></text>
    <flowRoot
       xml:space="preserve"
       id="flowRoot3713"
       style="font-size:4px;font-style:normal;font-weight:normal;fill:#000000;fill-opacity:1;stroke:none;font-family:Bitstream Vera Sans"
       transform="translate(-21.377871,282.49329)"><flowRegion
         id="flowRegion3715"><rect
           id="rect3717"
           width="68.714584"
           height="35.120789"
           x="445.11783"
           y="307.19067" /></flowRegion><flowPara
         id="flowPara3719" /></flowRoot>    <text
       xml:space="preserve"
       style="font-size:16px;font-style:normal;font-weight:normal;fill:#000000;fill-opacity:1;stroke:none;font-family:Bitstream Vera Sans"
       x="424.49713"
       y="616.76874"
       id="text3051"><tspan
         sodipodi:role="line"
         x="424.49713"
         y="616.76874"
         id="tspan3053"><tspan
           x="424.49713"
           y="616.76874"
           id="tspan3055">Colour:</tspan></tspan></text>
    <rect
       style="fill:none;stroke:#494949;stroke-width:2;stroke-linecap:round;stroke-linejoin:miter;stroke-miterlimit:4;stroke-opacity:1;stroke-dasharray:none"
       id="rect3729"
       width="176.36745"
       height="3.8174767"
       x="424.50345"
       y="589.68396"
       ry="1.9087384" />
    <use
       x="0"
       y="0"
       xlink:href="#rect3729"
       id="use3731"
       transform="translate(-7.1667756e-8,100)"
       width="744.09448"
       height="1052.3622" />
    <rect
       style="fill:#26ea59;fill-opacity:1;stroke:#604949;stroke-width:2;stroke-linecap:round;stroke-linejoin:miter;stroke-miterlimit:4;stroke-opacity:1;stroke-dasharray:none"
       id="rect3733"
       width="174.84044"
       height="51.15419"
       x="425.26694"
       y="624.80475"
       ry="1.9087384" />
    <text
       xml:space="preserve"
       style="font-size:16px;font-style:normal;font-weight:normal;fill:#000000;fill-opacity:1;stroke:none;font-family:Bitstream Vera Sans"
       x="426.02838"
       y="717.58124"
       id="text3057"><tspan
         sodipodi:role="line"
         x="426.02838"
         y="717.58124"
         id="tspan3059"><tspan
           x="426.02838"
           y="717.58124"
           id="tspan3061">Radius:</tspan></tspan></text>
    <text
       xml:space="preserve"
       style="font-size:16px;font-style:normal;font-weight:normal;fill:#000000;fill-opacity:1;stroke:none;font-family:Bitstream Vera Sans"
       x="426.02838"
       y="749.58124"
       id="text3063"><tspan
         sodipodi:role="line"
         x="426.02838"
         y="749.58124"
         id="tspan3065"><tspan
           x="426.02838"
           y="749.58124"
           id="tspan3067">Length:</tspan></tspan></text>
    <text
       xml:space="preserve"
       style="font-size:16px;font-style:normal;font-weight:normal;fill:#000000;fill-opacity:1;stroke:none;font-family:Bitstream Vera Sans"
       x="426.02838"
       y="777.58124"
       id="text3069"><tspan
         sodipodi:role="line"
         x="426.02838"
         y="777.58124"
         id="tspan3071"><tspan
           x="426.02838"
           y="777.58124"
           id="tspan3073">Image:</tspan></tspan></text>
    <rect
       style="fill:#ffffff;fill-opacity:1;stroke:#000000;stroke-width:1;stroke-linecap:round;stroke-linejoin:miter;stroke-miterlimit:4;stroke-opacity:1;stroke-dasharray:none"
       id="rect3763"
       width="103.83537"
       height="18.323889"
       x="489.40054"
       y="703.44476"
       ry="0" />
    <use
       x="0"
       y="0"
       xlink:href="#rect3763"
       id="use3765"
       transform="translate(-7.1667756e-8,32.000001)"
       width="744.09448"
       height="1052.3622" />
    <use
       x="0"
       y="0"
       xlink:href="#use3765"
       id="use3767"
       transform="translate(-7.1667756e-8,30.000001)"
       width="744.09448"
       height="1052.3622" />
    <text
       xml:space="preserve"
       style="font-size:72px;font-style:normal;font-weight:normal;fill:#000000;fill-opacity:1;stroke:none;font-family:Bitstream Vera Sans"
       x="256.4375"
       y="403.99149"
       id="text3013"><tspan
         sodipodi:role="line"
         x="256.4375"
         y="403.99149"
         id="tspan3015"><tspan
           x="256.4375"
           y="403.99149"
           id="tspan3017">ExeSoft Obsidian</tspan></tspan></text>
    <text
       xml:space="preserve"
       style="font-size:4px;font-style:normal;font-weight:normal;fill:#000000;fill-opacity:1;stroke:none;font-family:Bitstream Vera Sans"
       x="531.35315"
       y="453.50751"
       id="text3007"><tspan
         sodipodi:role="line"
         x="531.35315"
         y="453.50751"
         id="tspan3009"><tspan
           x="531.35315"
           y="453.50751"
           style="font-size:28px;text-align:center;text-anchor:middle"
           id="tspan3011">Particle editor - GUI mockup</tspan></tspan></text>
    <rect
       ry="0"
       y="563.04382"
       x="503.40323"
       height="18.391857"
       width="89.866646"
       id="rect4073"
       style="fill:#ffffff;fill-opacity:1;stroke:#000000;stroke-width:0.93203145;stroke-linecap:round;stroke-linejoin:miter;stroke-miterlimit:4;stroke-opacity:1;stroke-dasharray:none" />
    <flowRoot
       xml:space="preserve"
       id="flowRoot4113"
       style="font-size:4px;font-style:normal;font-weight:normal;fill:#000000;fill-opacity:1;stroke:none;font-family:Bitstream Vera Sans"><flowRegion
         id="flowRegion4115"><rect
           id="rect4117"
           width="287.21231"
           height="88.539131"
           x="722.34979"
           y="626.40222" /></flowRegion><flowPara
         id="flowPara4119" /></flowRoot>    <text
       xml:space="preserve"
       style="font-size:12px;font-style:normal;font-weight:normal;fill:#000000;fill-opacity:1;stroke:none;font-family:Courier New;-inkscape-font-specification:Courier New"
       x="491.96875"
       y="778.91504"
       id="text3093"><tspan
         sodipodi:role="line"
         x="491.96875"
         y="778.91504"
         id="tspan3095"><tspan
           x="491.96875"
           y="778.91504"
           id="tspan3097">C:/Users/Da...</tspan></tspan></text>
    <text
       xml:space="preserve"
       style="font-size:12px;font-style:normal;font-weight:normal;fill:#000000;fill-opacity:1;stroke:none;font-family:Courier New;-inkscape-font-specification:Courier New"
       x="491.96875"
       y="748.91504"
       id="text3087"><tspan
         sodipodi:role="line"
         x="491.96875"
         y="748.91504"
         id="tspan3089"><tspan
           x="491.96875"
           y="748.91504"
           id="tspan3091">4.0</tspan></tspan></text>
    <text
       xml:space="preserve"
       style="font-size:12px;font-style:normal;font-weight:normal;fill:#000000;fill-opacity:1;stroke:none;font-family:Courier New;-inkscape-font-specification:Courier New"
       x="491.96875"
       y="716.91504"
       id="text3081"><tspan
         sodipodi:role="line"
         x="491.96875"
         y="716.91504"
         id="tspan3083"><tspan
           x="491.96875"
           y="716.91504"
           id="tspan3085">36.9</tspan></tspan></text>
    <text
       xml:space="preserve"
       style="font-size:12px;font-style:normal;font-weight:normal;fill:#000000;fill-opacity:1;stroke:none;font-family:Courier New;-inkscape-font-specification:Courier New"
       x="505.96875"
       y="574.91504"
       id="text3075"><tspan
         sodipodi:role="line"
         x="505.96875"
         y="574.91504"
         id="tspan3077"><tspan
           x="505.96875"
           y="574.91504"
           id="tspan3079">Circle</tspan></tspan></text>
    <rect
       ry="0.96135992"
       y="797.19147"
       x="516.51324"
       height="25.764446"
       width="76.028"
       id="rect2996"
       style="fill:#a3a9ac;fill-opacity:1;stroke:#604949;stroke-width:0.935978;stroke-linecap:round;stroke-linejoin:miter;stroke-miterlimit:4;stroke-opacity:1;stroke-dasharray:none" />
    <text
       id="text3776"
       y="816.3634"
       x="532.2019"
       style="font-size:18px;font-style:normal;font-weight:normal;fill:#000000;fill-opacity:1;stroke:none;font-family:Bitstream Vera Sans"
       xml:space="preserve"><tspan
         id="tspan3778"
         y="816.3634"
         x="532.2019"
         sodipodi:role="line">Done</tspan></text>
  </g>
  <g
     inkscape:groupmode="layer"
     id="layer3"
     inkscape:label="Annotations"
     style="display:inline">
    <path
       style="fill:#000000;fill-opacity:1;stroke:#000000;stroke-width:1;stroke-linecap:round;stroke-linejoin:miter;stroke-miterlimit:4;stroke-opacity:1;stroke-dasharray:none;display:inline"
       id="path4083"
       d="m 611.79041,258.89454 c 10.9886,0.65775 21.80468,-2.37186 32.38345,-4.92385 19.67241,-5.15778 39.09323,-11.21014 58.36913,-17.67991 7.00104,-2.38273 13.93584,-4.93781 20.69755,-7.93176 0,0 -12.23654,9.66674 -12.23654,9.66674 l 0,0 c -6.46977,2.64358 -13.10491,4.84984 -19.74563,7.02133 -19.20157,6.09875 -38.47841,11.97738 -57.93522,17.21366 -11.31858,2.82918 -22.75272,6.01459 -34.50699,6.06014 0,0 12.97425,-9.42635 12.97425,-9.42635 z" />
    <path
       style="fill:#000000;fill-opacity:1;stroke:#000000;stroke-width:1;stroke-linecap:round;stroke-linejoin:miter;stroke-miterlimit:4;stroke-opacity:1;stroke-dasharray:none;display:inline"
       id="path4085"
       d="m 615.26221,392.8017 c 7.3874,0.28951 14.78332,0.27834 22.17528,0.26889 6.79948,0.28044 13.82921,1.14743 19.84845,4.5808 1.04614,0.59671 2.00314,1.33765 3.00471,2.00647 5.99883,5.76689 9.1791,13.44733 11.55977,21.26025 1.60934,5.69112 2.79138,11.48858 4.31065,17.20357 1.55827,5.57123 4.04841,10.81316 7.03311,15.74932 2.77986,4.53291 5.50797,7.03005 10.48891,8.86822 5.50077,1.5424 11.27503,1.5008 16.94212,1.55157 0.95635,-0.004 1.9127,-0.007 2.86905,-0.0113 0,0 -12.54347,9.10004 -12.54347,9.10004 l 0,0 c -0.93593,-0.0169 -1.87187,-0.0338 -2.8078,-0.0507 -5.83955,-0.137 -11.82013,0.0311 -17.41372,-1.90709 -5.11678,-2.16979 -8.14856,-4.95199 -10.9727,-9.76476 -3.00548,-5.07699 -5.42044,-10.50307 -7.2956,-16.09707 -1.5454,-5.73136 -2.42297,-11.61071 -3.9713,-17.34254 -2.1599,-7.52495 -5.16441,-14.91448 -11.10303,-20.28185 -0.95746,-0.61344 -1.87482,-1.2945 -2.87238,-1.84032 -5.88733,-3.22127 -12.66825,-3.96357 -19.25932,-4.17346 -7.63883,-0.01 -15.28075,-0.01 -22.91549,0.26889 0,0 12.92276,-9.38893 12.92276,-9.38893 z" />
    <text
       transform="translate(0,-308.2677)"
       xml:space="preserve"
       style="font-size:16px;font-style:normal;font-weight:normal;fill:#000000;fill-opacity:1;stroke:none;display:inline;font-family:Bitstream Vera Sans"
       x="730.875"
       y="528.66815"
       id="text3019"><tspan
         sodipodi:role="line"
         x="730.875"
         y="528.66815"
         id="tspan3021"><tspan
           x="730.875"
           y="528.66815"
           id="tspan3023">Dropdown menu (point, circle, line, </tspan></tspan><tspan
         sodipodi:role="line"
         x="730.875"
         y="548.66815"
         id="tspan3025"><tspan
           x="730.875"
           y="548.66815"
           id="tspan3027">scaling lane, bubble, image)</tspan><tspan
           dx="0"
           x="930.25"
           y="548.66815"
           id="tspan3029" /></tspan><tspan
         sodipodi:role="line"
         x="730.875"
         y="568.66809"
         id="tspan3031"><tspan
           x="730.875"
           y="568.66809"
           id="tspan3033">-Not keyframeable</tspan></tspan></text>
    <text
       transform="translate(0,-308.2677)"
       xml:space="preserve"
       style="font-size:16px;font-style:normal;font-weight:normal;fill:#000000;fill-opacity:1;stroke:none;display:inline;font-family:Bitstream Vera Sans"
       x="718.65625"
       y="745.51184"
       id="text3099"><tspan
         sodipodi:role="line"
         x="718.65625"
         y="745.51184"
         id="tspan3101"><tspan
           x="718.65625"
           y="745.51184"
           id="tspan3103">Only the relevant one is shown (if any)</tspan><tspan
           dx="0"
           x="990.90625"
           y="745.51184"
           id="tspan3105" /></tspan><tspan
         sodipodi:role="line"
         x="718.65625"
         y="765.51184"
         id="tspan3107"><tspan
           x="718.65625"
           y="765.51184"
           id="tspan3109">''Image' could show a preview just below it?</tspan><tspan
           dx="0"
           x="1026.8125"
           y="765.51184"
           id="tspan3111" /></tspan><tspan
         sodipodi:role="line"
         x="718.65625"
         y="785.51184"
         id="tspan3113"><tspan
           x="718.65625"
           y="785.51184"
           id="tspan3115">-'Image' paramater not currently </tspan></tspan><tspan
         sodipodi:role="line"
         x="718.65625"
         y="805.51184"
         id="tspan3117"><tspan
           x="718.65625"
           y="805.51184"
           id="tspan3119">keyframeable </tspan></tspan></text>
    <path
       style="fill:#000000;fill-opacity:1;stroke:#000000;stroke-width:1;stroke-linecap:round;stroke-linejoin:miter;stroke-miterlimit:4;stroke-opacity:1;stroke-dasharray:none;display:inline"
       id="path4139"
       d="m 304.46026,277.15244 c -11.11653,-6.84932 -22.4438,-13.33254 -33.92439,-19.55051 -13.15782,-6.82224 -26.3441,-13.58435 -39.88207,-19.62453 -5.52988,-2.58306 -11.44762,-4.08695 -17.14019,-6.22948 -4.17981,-1.53097 -8.27605,-3.3408 -12.33729,-5.17471 -2.99969,-1.25903 -6.07909,-2.45285 -8.87395,-4.13398 -0.317,-0.17828 -0.634,-0.35657 -0.951,-0.53485 0,0 13.36029,-8.6716 13.36029,-8.6716 l 0,0 c 0.311,0.18637 0.62201,0.37273 0.93302,0.55909 2.74932,1.58427 5.66785,2.87464 8.58296,4.11806 4.0348,1.8119 8.09428,3.60004 12.24854,5.11811 5.59958,2.12759 11.363,3.83999 16.66767,6.68707 13.13338,6.48353 25.89181,13.69174 38.94626,20.33108 11.83972,6.2737 23.56875,12.78851 35.73436,18.41897 0,0 -13.36421,8.68728 -13.36421,8.68728 z" />
    <text
       transform="translate(0,-308.2677)"
       xml:space="preserve"
       style="font-size:16px;font-style:normal;font-weight:normal;fill:#000000;fill-opacity:1;stroke:none;display:inline;font-family:Bitstream Vera Sans"
       x="105.53125"
       y="489.35562"
       id="text2993"><tspan
         sodipodi:role="line"
         x="105.53125"
         y="489.35562"
         id="tspan2995"><tspan
           x="105.53125"
           y="489.35562"
           id="tspan2997">Preview window (simple </tspan></tspan><tspan
         sodipodi:role="line"
         x="105.53125"
         y="509.35562"
         id="tspan2999"><tspan
           x="105.53125"
           y="509.35562"
           id="tspan3001">fountain of the current </tspan></tspan><tspan
         sodipodi:role="line"
         x="105.53125"
         y="529.35565"
         id="tspan3003"><tspan
           x="105.53125"
           y="529.35565"
           id="tspan3005">particle)</tspan></tspan></text>
    <path
       style="fill:#000000;fill-opacity:1;stroke:#000000;stroke-width:1;stroke-linecap:round;stroke-linejoin:miter;stroke-miterlimit:4;stroke-opacity:1;stroke-dasharray:none;display:inline"
       id="path4153"
       d="m 597.13242,346.80189 c 1.14589,0.25154 2.29177,0.50308 3.43765,0.75462 2.2581,0.49467 4.51638,0.98855 6.7743,1.48402 9.28742,2.03802 11.35731,2.60586 21.11368,4.26157 10.70184,1.81615 13.64693,2.05437 24.42784,3.38299 13.45951,1.33769 26.97739,2.72493 40.5224,2.16315 6.21278,-0.25767 7.78514,-0.56477 13.73366,-1.29715 7.94526,-1.35246 15.89485,-3.06751 23.43551,-5.95961 2.38966,-0.82741 4.66364,-1.87144 6.94181,-2.95416 0,0 -12.41543,9.86766 -12.41543,9.86766 l 0,0 c -2.20638,0.98687 -4.47135,1.81621 -6.74712,2.62937 -7.44411,2.51902 -15.17813,4.13565 -22.96599,5.14947 -5.76259,0.53486 -7.41212,0.79421 -13.41406,0.87538 -13.33049,0.18029 -26.59428,-1.46274 -39.82268,-2.87788 -11.73476,-1.47072 -12.88918,-1.5278 -24.59438,-3.34652 -11.17421,-1.73621 -22.28185,-3.95458 -33.54341,-5.08586 0,0 13.11622,-9.04705 13.11622,-9.04705 z" />
    <text
       transform="translate(0,-308.2677)"
       xml:space="preserve"
       style="font-size:16px;font-style:normal;font-weight:normal;fill:#000000;fill-opacity:1;stroke:none;display:inline;font-family:Bitstream Vera Sans"
       x="742.09375"
       y="649.38684"
       id="text3035"><tspan
         sodipodi:role="line"
         x="742.09375"
         y="649.38684"
         id="tspan3037"><tspan
           x="742.09375"
           y="649.38684"
           id="tspan3039">Opens a colour picker </tspan></tspan><tspan
         sodipodi:role="line"
         x="742.09375"
         y="669.38684"
         id="tspan3041"><tspan
           x="742.09375"
           y="669.38684"
           id="tspan3043">window when clicked</tspan></tspan></text>
    <path
       style="fill:#000000;fill-opacity:1;stroke:#000000;stroke-width:1;stroke-linecap:round;stroke-linejoin:miter;stroke-miterlimit:4;stroke-opacity:1;stroke-dasharray:none;display:inline"
       id="path3786"
       d="m 698.03648,476.96711 c -3.30563,0.31749 -6.49169,1.17585 -9.49676,2.57843 -2.39825,1.48926 -4.98556,2.60105 -7.53476,3.78529 -2.31422,0.782 -4.7741,1.08795 -7.18849,1.42034 -3.84787,0.39726 -7.7225,0.44542 -11.58758,0.48677 -3.59073,0.027 -7.18138,0.0461 -10.77217,0.0541 -3.62272,-0.0175 -7.2452,-0.0413 -10.868,-0.0303 -3.49525,-0.0788 -7.02513,-0.43692 -10.47911,-1.00121 -3.48419,-0.6334 -6.92572,-1.43769 -10.44347,-1.88549 -2.81123,-0.11111 -5.56943,-0.56964 -8.35705,-0.9111 -2.7893,-0.32111 -5.5961,-0.41847 -8.40123,-0.46286 -2.02356,-0.0168 -4.04713,-0.0261 -6.07077,-0.0236 0,0 12.85022,-9.3364 12.85022,-9.3364 l 0,0 c 2.03507,0.002 4.07068,-0.0153 6.10504,0.05 2.81142,0.10164 5.61938,0.28881 8.41162,0.64222 2.79742,0.34246 5.60126,0.58027 8.39728,0.92769 3.47326,0.57307 6.8935,1.41734 10.37755,1.92824 3.42811,0.42703 6.88282,0.84024 10.34052,0.82389 3.6442,0.0135 7.28816,-0.008 10.93232,-0.0148 3.55231,0.0163 7.10503,0.0473 10.65716,-0.002 3.85745,-0.0743 7.7312,-0.14462 11.5524,-0.72935 2.38194,-0.40271 4.82113,-0.78521 7.00787,-1.86371 2.48223,-1.20172 4.99921,-2.32578 7.43739,-3.61907 3.20896,-1.21235 6.54676,-1.87058 9.91317,-2.49585 0,0 -12.78315,9.67869 -12.78315,9.67869 z" />
    <path
       style="fill:#000000;fill-opacity:1;stroke:#000000;stroke-width:1;stroke-linecap:round;stroke-linejoin:miter;stroke-miterlimit:4;stroke-opacity:1;stroke-dasharray:none;display:inline"
       id="path4089"
       d="m 596.67397,524.51195 c 4.29131,0.15736 8.58787,0.14083 12.88162,0.13624 5.41036,-0.003 10.82068,0.0262 16.23104,0.0222 5.65964,-0.0134 11.31906,-0.004 16.97866,0.0149 6.5564,0.0251 13.11269,0.0257 19.66916,0.0147 5.07188,0.12105 10.11763,0.94162 14.98091,2.37238 3.4394,0.9082 6.55098,2.6902 9.56135,4.53577 3.11275,1.79159 6.16091,3.66725 9.15979,5.63958 0.94106,0.50601 1.85592,1.03543 2.82279,1.49069 0,0 -13.3135,8.75377 -13.3135,8.75377 l 0,0 c -0.98825,-0.52917 -1.97238,-1.06632 -2.90163,-1.69637 -2.86593,-2.05775 -5.84242,-3.93716 -8.92959,-5.64975 -2.9956,-1.66418 -6.04069,-3.28836 -9.36512,-4.19887 -4.71002,-1.33074 -9.56687,-2.1559 -14.47163,-2.19692 -6.56995,-0.0111 -13.13973,-0.0102 -19.70961,0.0147 -5.67324,0.0188 -11.3463,0.0283 -17.01957,0.0149 -5.43076,-0.004 -10.8615,0.0253 -16.29227,0.0222 -4.41884,-0.005 -8.83999,-0.016 -13.25665,0.13624 0,0 12.97425,-9.42634 12.97425,-9.42634 z" />
    <path
       style="fill:#000000;fill-opacity:1;stroke:#000000;stroke-width:1;stroke-linecap:round;stroke-linejoin:miter;stroke-miterlimit:4;stroke-opacity:1;stroke-dasharray:none;display:inline"
       id="path4091"
       d="m 192.99938,560.20136 c 2.27098,3.6948 4.63376,7.31309 7.09866,10.88335 4.82269,6.95464 10.09868,13.57846 15.56189,20.03688 5.10615,6.44647 10.94805,12.16679 17.29198,17.37242 6.34325,5.02045 13.52441,8.72662 20.92594,11.89907 7.11403,3.22184 14.58833,5.49959 22.19279,7.21397 9.63955,1.99606 19.36753,3.5025 29.09756,4.97327 9.72521,1.29373 19.44125,2.6853 29.11103,4.34545 5.56221,0.8709 11.05243,2.13318 16.63774,2.85838 0.5116,0.0504 1.02321,0.10089 1.53482,0.15133 0,0 -12.91028,9.1397 -12.91028,9.1397 l 0,0 c -0.50385,-0.0749 -1.0077,-0.14984 -1.51155,-0.22476 -5.41362,-0.96268 -10.74568,-2.33154 -16.1716,-3.23375 -9.58124,-1.80344 -19.23906,-3.11929 -28.89488,-4.45271 -9.82081,-1.56053 -19.67369,-2.9546 -29.43292,-4.87658 -7.65398,-1.8327 -15.17156,-4.23283 -22.3713,-7.43448 -7.44237,-3.34397 -14.65291,-7.26863 -21.12699,-12.26956 -2.33149,-1.92816 -3.699,-2.99218 -5.89502,-5.07531 -4.12027,-3.90846 -7.66789,-8.34783 -11.4147,-12.6005 -5.53572,-6.46434 -10.7639,-13.17178 -15.81435,-20.02146 -2.64288,-3.45323 -5.13416,-6.9939 -7.70018,-10.50023 0,0 13.79136,-8.18448 13.79136,-8.18448 z" />
    <text
       transform="translate(0,-308.2677)"
       xml:space="preserve"
       style="font-size:16px;font-style:normal;font-weight:normal;fill:#000000;fill-opacity:1;stroke:none;display:inline;font-family:Bitstream Vera Sans"
       x="692.625"
       y="865.6369"
       id="text3121"><tspan
         sodipodi:role="line"
         x="692.625"
         y="865.6369"
         id="tspan3123"><tspan
           x="692.625"
           y="865.6369"
           id="tspan3125">Keyframe markers (can be clicked </tspan></tspan><tspan
         sodipodi:role="line"
         x="692.625"
         y="885.6369"
         id="tspan3127"><tspan
           x="692.625"
           y="885.6369"
           id="tspan3129">on to go to associated frames)</tspan></tspan></text>
    <text
       transform="translate(0,-308.2677)"
       xml:space="preserve"
       style="font-size:16px;font-style:normal;font-weight:normal;fill:#000000;fill-opacity:1;stroke:none;display:inline;font-family:Bitstream Vera Sans"
       x="287.21875"
       y="980.7619"
       id="text3139"><tspan
         sodipodi:role="line"
         x="287.21875"
         y="980.7619"
         id="tspan3141"><tspan
           x="287.21875"
           y="980.7619"
           id="tspan3143">Current frame marker</tspan></tspan></text>
    <path
       style="fill:#000000;fill-opacity:1;stroke:#000000;stroke-width:1;stroke-linecap:round;stroke-linejoin:miter;stroke-miterlimit:4;stroke-opacity:1;stroke-dasharray:none;display:inline"
       id="path4195"
       d="m 388.67377,544.78741 c 2.09576,3.95953 4.66435,7.65364 6.78768,11.59591 1.96827,3.65439 3.76962,7.39649 5.7005,11.07076 5.65018,10.5645 11.14372,21.22843 17.17642,31.58175 4.24732,6.77751 8.36537,13.65332 13.3025,19.96824 1.22333,1.56473 2.54463,3.05033 3.81695,4.5755 4.83449,5.6307 9.96071,11.07573 15.80354,15.67796 4.05895,3.19713 4.9903,3.66609 9.32739,6.49555 9.04601,5.7692 19.03031,9.74282 29.06676,13.40367 9.49262,3.59884 19.23865,6.33414 29.19775,8.26376 11.30402,1.96541 22.66701,3.56208 34.06805,4.8409 12.38763,1.25508 24.8445,1.45549 37.28467,1.52941 10.45348,0.0997 20.90693,0.15969 31.36054,0.0543 3.4676,-0.0428 6.93487,-0.10662 10.40214,-0.16971 0,0 -12.55928,9.12771 -12.55928,9.12771 l 0,0 c -3.32517,-0.0533 -6.65035,-0.10702 -9.9758,-0.14093 -10.45267,-0.0853 -20.90562,0.0404 -31.35779,-0.0891 -12.39303,-0.34214 -24.79502,-0.75228 -37.15164,-1.79683 -11.48923,-1.26872 -22.92941,-2.92821 -34.33463,-4.80558 -9.98524,-2.00472 -19.77839,-4.82975 -29.28965,-8.4886 -10.08674,-3.77309 -20.11668,-7.77407 -29.14772,-13.75162 -4.23084,-2.78108 -5.49816,-3.48046 -9.46309,-6.61674 -5.89824,-4.66555 -11.02938,-10.20513 -15.8483,-15.9562 -6.48263,-7.73756 -12.63551,-15.76953 -17.58423,-24.59584 -5.63194,-10.58629 -10.82096,-21.41022 -16.71587,-31.85888 -4.27398,-7.5006 -8.52752,-15.01776 -13.62251,-22.00385 0,0 13.75562,-7.91158 13.75562,-7.91158 z" />
    <text
       transform="translate(0,-308.2677)"
       xml:space="preserve"
       style="font-size:16px;font-style:normal;font-weight:normal;fill:#000000;fill-opacity:1;stroke:none;display:inline;font-family:Bitstream Vera Sans"
       x="639.21875"
       y="974.7619"
       id="text3145"><tspan
         sodipodi:role="line"
         x="639.21875"
         y="974.7619"
         id="tspan3147"><tspan
           x="639.21875"
           y="974.7619"
           id="tspan3149">Timeline view (length is equal to the particle </tspan></tspan><tspan
         sodipodi:role="line"
         x="639.21875"
         y="994.7619"
         id="tspan3151"><tspan
           x="639.21875"
           y="994.7619"
           id="tspan3153">life defined by this source; editable from the </tspan></tspan><tspan
         sodipodi:role="line"
         x="639.21875"
         y="1014.7619"
         id="tspan3155"><tspan
           x="639.21875"
           y="1014.7619"
           id="tspan3157">program's main window</tspan></tspan></text>
    <path
       style="fill:#000000;fill-opacity:1;stroke:#000000;stroke-width:1;stroke-linecap:round;stroke-linejoin:miter;stroke-miterlimit:4;stroke-opacity:1;stroke-dasharray:none;display:inline"
       id="path3788"
       d="m 601.80693,498.66353 c 9.75308,0.22591 19.44007,1.284 29.103,2.54854 8.54034,0.89661 17.00235,2.43212 25.34029,4.47295 5.14743,1.36296 10.40713,2.26301 15.5001,3.82355 4.14595,1.38117 8.47888,1.79534 12.81289,2.04153 5.33138,0.19809 10.66795,0.17834 16.00215,0.20554 6.53223,0.0108 13.06454,0.0117 19.59673,-0.0137 5.80089,-0.0555 11.60183,-0.0258 17.40278,-0.008 6.45609,0.002 12.91217,0.0125 19.36828,0.0132 6.30451,0.0174 12.5982,-0.23777 18.87085,0.48236 5.99745,0.74468 11.95869,1.72198 17.97908,2.28067 5.4244,0.41711 10.86792,0.43138 16.30488,0.46014 5.50296,-0.0362 11.00519,-0.01 16.50808,0.0144 6.01465,0.0849 11.8695,-1.20712 17.76789,-2.1603 5.21098,-0.99255 10.34591,-2.34044 15.54699,-3.37837 2.84808,-0.42179 5.68126,-1.21125 8.23819,-2.54466 0,0 -12.42859,9.85219 -12.42859,9.85219 l 0,0 c -2.67213,0.99971 -5.41501,1.7353 -8.24863,2.11677 -5.17412,1.07142 -10.30411,2.36115 -15.51006,3.27414 -5.91353,0.96963 -11.81197,2.0149 -17.83677,1.90277 -5.52575,0.0348 -11.05098,0.0893 -16.57687,0.0233 -5.48203,-0.0308 -10.97575,-0.0406 -16.43935,-0.54283 -5.98235,-0.63578 -11.89216,-1.82582 -17.88925,-2.34741 -6.23247,-0.54367 -12.48081,-0.37791 -18.73195,-0.39098 -6.46817,6.9e-4 -12.93632,0.0109 -19.40447,0.0131 -5.79692,0.018 -11.59382,0.0486 -17.39073,7.3e-4 -6.53981,-0.0161 -13.07967,0.002 -19.61943,0.0294 -5.39508,0.0304 -10.79442,0.0752 -16.18502,-0.18864 -4.43598,-0.27904 -8.83271,-0.85043 -13.05615,-2.31442 -5.01497,-1.48024 -10.15672,-2.47362 -15.17254,-3.95783 -8.22708,-2.08363 -16.57577,-3.56222 -25.01236,-4.50265 -9.81344,-1.40719 -19.69955,-2.56472 -29.63403,-1.90999 0,0 12.79402,-9.2954 12.79402,-9.2954 z" />
    <text
       transform="translate(0,-308.2677)"
       id="text3790"
       y="820.65222"
       x="872.71692"
       style="font-size:16px;font-style:normal;font-weight:normal;fill:#000000;fill-opacity:1;stroke:none;display:inline;font-family:Bitstream Vera Sans"
       xml:space="preserve"><tspan
         id="tspan3808"
         y="820.65222"
         x="872.71692"
         sodipodi:role="line">Return to main window</tspan></text>
  </g>
  <g
     inkscape:groupmode="layer"
     id="layer2"
     inkscape:label="Scaling"
     style="display:inline">
    <path
       style="fill:none;stroke:#000000;stroke-width:1.93020928px;stroke-linecap:butt;stroke-linejoin:miter;stroke-opacity:1"
       d="M 110.69306,491.96876 76.991515,502.9562 c 92.811215,0 222.078475,0 339.189635,0 l -35.87583,-11.48687"
       id="path3835" />
    <path
       id="path3895"
       d="m 500.05799,477.49987 -10.36819,6.90955 c 28.55312,0 68.32184,0 104.35077,0 l -11.0371,-7.22362"
       style="fill:none;stroke:#000000;stroke-width:0.84899914px;stroke-linecap:butt;stroke-linejoin:miter;stroke-opacity:1" />
    <path
       style="fill:none;stroke:#000000;stroke-width:0.88233805px;stroke-linecap:butt;stroke-linejoin:miter;stroke-opacity:1"
       d="m 444.37289,371.4155 -16.50954,4.68677 c 45.4659,0 108.79071,0 166.16055,0 l -17.57468,-4.8998"
       id="path3897" />
    <path
       id="path3899"
       d="m 511.80141,274.43826 -8.80389,3.53491 c 24.24515,0 58.01375,0 88.6068,0 l -9.3719,-3.69559"
       style="fill:none;stroke:#000000;stroke-width:0.5595727px;stroke-linecap:butt;stroke-linejoin:miter;stroke-opacity:1" />
    <path
       style="fill:none;stroke:#000000;stroke-width:0.79118067px;stroke-linecap:butt;stroke-linejoin:miter;stroke-opacity:1"
       d="m 436.26607,505.7228 -8.30027,6.96486 c 22.85825,0 54.69519,0 83.53822,0 l -8.83578,-7.28144"
       id="path3901" />
    <path
       id="path3903"
       d="m 127.65219,576.63963 -52.217316,6.66236 c 143.802076,0 344.089296,0 525.541806,0 l -55.58615,-6.9652"
       style="fill:none;stroke:#000000;stroke-width:1.87090898px;stroke-linecap:butt;stroke-linejoin:miter;stroke-opacity:1" />
    <path
       id="path3905"
       d="m 596.85599,526.66921 12.46887,1.15971 c 0,-3.19374 0,-7.64197 0,-11.6719 l -13.03565,1.23452"
       style="fill:none;stroke:#000000;stroke-width:0.38143399px;stroke-linecap:butt;stroke-linejoin:miter;stroke-opacity:1" />
    <path
       style="fill:none;stroke:#000000;stroke-width:0.92830598px;stroke-linecap:butt;stroke-linejoin:miter;stroke-opacity:1"
       d="m 68.475126,457.6644 -3.912481,21.89109 c 0,-60.28613 0,-144.25244 0,-220.32277 l 4.09033,23.30322"
       id="path3907" />
    <rect
       style="fill:none;stroke:#000000;stroke-width:1;stroke-linecap:round;stroke-linejoin:miter;stroke-miterlimit:4;stroke-opacity:1;stroke-dasharray:7.99999987, 7.99999987;stroke-dashoffset:0"
       id="rect3909"
       width="190.11035"
       height="282.49329"
       x="421.44946"
       y="247.82248"
       ry="0" />
    <rect
       ry="0"
       y="247.82248"
       x="63.007465"
       height="282.49329"
       width="356.55234"
       id="rect5349"
       style="fill:none;stroke:#000000;stroke-width:1;stroke-linecap:round;stroke-linejoin:miter;stroke-miterlimit:4;stroke-opacity:1;stroke-dasharray:7.99999984, 7.99999984;stroke-dashoffset:0" />
    <rect
       style="fill:none;stroke:#000000;stroke-width:0.99999994;stroke-linecap:round;stroke-linejoin:miter;stroke-miterlimit:4;stroke-opacity:1;stroke-dasharray:7.99999993, 7.99999993;stroke-dashoffset:0"
       id="rect5351"
       width="541.57184"
       height="54.555496"
       x="68.664314"
       y="531.77747"
       ry="0" />
    <rect
       style="fill:#53c3ce;fill-opacity:0.51461989;stroke:none"
       id="rect5355"
       width="173.94827"
       height="27.577164"
       x="425.67825"
       y="389.83392" />
    <rect
       y="421.83392"
       x="425.67825"
       height="27.577164"
       width="173.94827"
       id="rect5357"
       style="fill:#53c3ce;fill-opacity:0.51461989;stroke:none" />
    <rect
       style="fill:#53c3ce;fill-opacity:0.51461989;stroke:none"
       id="rect5359"
       width="173.94827"
       height="27.577164"
       x="425.67825"
       y="451.83392" />
    <rect
       y="487.83392"
       x="425.67825"
       height="27.577164"
       width="173.94827"
       id="rect5361"
       style="fill:#53c3ce;fill-opacity:0.51461989;stroke:none" />
    <rect
       style="fill:#53c3ce;fill-opacity:0.51461989;stroke:none"
       id="rect5363"
       width="179.60513"
       height="77.074638"
       x="422.84982"
       y="292.33646" />
    <rect
       style="fill:#53c3ce;fill-opacity:0.51461989;stroke:none"
       id="rect5365"
       width="173.94827"
       height="27.577164"
       x="425.67825"
       y="251.83392" />
    <path
       style="fill:none;stroke:#000000;stroke-width:2.19257832px;stroke-linecap:butt;stroke-linejoin:miter;stroke-opacity:1"
       d="m 623.98716,499.51406 17.43213,27.40929 c 0,-75.48279 0,-180.61495 0,-275.86076 l -18.22451,29.1774"
       id="path5367" />
  </g>
</svg>
